<svg xmlns="http://www.w3.org/2000/svg" width="232" height="145" fill="none" viewBox="0 0 232 145"><rect width="26" height="7" x="47" y="57" fill="#F6F6F6"/><rect width="26" height="7" x="75" y="57" fill="#F6F6F6"/><rect width="26" height="7" x="103" y="57" fill="#F6F6F6"/><rect width="26" height="7" x="131" y="57" fill="#F6F6F6"/><rect width="26" height="7" x="159" y="57" fill="#F6F6F6"/><rect width="26" height="7" x="47" y="66" fill="#F6F6F6"/><rect width="26" height="7" x="75" y="66" fill="#F6F6F6"/><rect width="26" height="7" x="103" y="66" fill="#F6F6F6"/><rect width="26" height="7" x="131" y="66" fill="#F6F6F6"/><rect width="26" height="7" x="159" y="66" fill="#F6F6F6"/><rect width="26" height="7" x="47" y="75" fill="#F6F6F6"/><rect width="26" height="7" x="75" y="75" fill="#F6F6F6"/><rect width="26" height="7" x="103" y="75" fill="#F6F6F6"/><rect width="26" height="7" x="131" y="75" fill="#F6F6F6"/><rect width="26" height="7" x="159" y="75" fill="#F6F6F6"/><rect width="26" height="7" x="47" y="84" fill="#F6F6F6"/><rect width="26" height="7" x="75" y="84" fill="#F6F6F6"/><rect width="26" height="7" x="103" y="84" fill="#F6F6F6"/><rect width="26" height="7" x="131" y="84" fill="#F6F6F6"/><rect width="26" height="7" x="159" y="84" fill="#F6F6F6"/><rect width="26" height="7" x="47" y="93" fill="#F6F6F6"/><rect width="26" height="7" x="75" y="93" fill="#F6F6F6"/><rect width="26" height="7" x="103" y="93" fill="#F6F6F6"/><rect width="26" height="7" x="131" y="93" fill="#F6F6F6"/><rect width="26" height="7" x="159" y="93" fill="#F6F6F6"/><rect width="26" height="10" x="47" y="45" fill="#E2E2E2"/><rect width="26" height="10" x="75" y="45" fill="#E2E2E2"/><rect width="26" height="10" x="103" y="45" fill="#E2E2E2"/><rect width="26" height="10" x="131" y="45" fill="#E2E2E2"/><rect width="26" height="10" x="159" y="45" fill="#E2E2E2"/></svg>