<svg xmlns="http://www.w3.org/2000/svg" width="232" height="145" fill="none" viewBox="0 0 232 145"><rect width="108" height="77" x="62" y="49" fill="#F6F6F6"/><rect width="108" height="31" x="62" y="18" fill="#CBCBCB"/><rect width="8" height="8" x="71" y="107" fill="#E2E2E2"/><rect width="8" height="8" x="91" y="107" fill="#E2E2E2"/><rect width="8" height="8" x="112" y="107" fill="#E2E2E2"/><rect width="8" height="8" x="71" y="59" fill="#E2E2E2"/><rect width="8" height="8" x="91" y="59" fill="#E2E2E2"/><rect width="8" height="8" x="112" y="59" fill="#E2E2E2"/><rect width="8" height="8" x="132" y="59" fill="#E2E2E2"/><rect width="8" height="8" x="153" y="59" fill="#E2E2E2"/><rect width="8" height="8" x="71" y="75" fill="#E2E2E2"/><rect width="8" height="8" x="91" y="75" fill="#E2E2E2"/><rect width="8" height="8" x="112" y="75" fill="#E2E2E2"/><rect width="8" height="8" x="132" y="75" fill="#E2E2E2"/><rect width="8" height="8" x="153" y="75" fill="#E2E2E2"/><rect width="8" height="8" x="71" y="91" fill="#E2E2E2"/><rect width="8" height="8" x="91" y="91" fill="#E2E2E2"/><rect width="8" height="8" x="112" y="91" fill="#E2E2E2"/><rect width="8" height="8" x="132" y="91" fill="#CBCBCB"/><rect width="8" height="8" x="153" y="91" fill="#E2E2E2"/><path fill="#F6F6F6" d="M161 32.9231L155.75 38.0526L155.75 27.7935L161 32.9231Z"/><path fill="#F6F6F6" d="M71 32.9231L76.25 27.7935L76.25 38.0526L71 32.9231Z"/></svg>