<svg xmlns="http://www.w3.org/2000/svg" width="232" height="145" fill="none" viewBox="0 0 232 145"><rect width="54" height="22" x="47" y="58" fill="#F6F6F6"/><rect width="54" height="22" x="47" y="82" fill="#F6F6F6"/><rect width="54" height="10" x="103" y="58" fill="#F6F6F6"/><rect width="26" height="10" x="159" y="58" fill="#F6F6F6"/><rect width="26" height="10" x="103" y="70" fill="#F6F6F6"/><rect width="26" height="10" x="131" y="70" fill="#F6F6F6"/><rect width="26" height="10" x="159" y="70" fill="#F6F6F6"/><rect width="54" height="10" x="103" y="82" fill="#F6F6F6"/><rect width="26" height="10" x="159" y="82" fill="#F6F6F6"/><rect width="26" height="10" x="103" y="94" fill="#F6F6F6"/><rect width="26" height="10" x="131" y="94" fill="#F6F6F6"/><rect width="26" height="10" x="159" y="94" fill="#F6F6F6"/><rect width="54" height="10" x="47" y="46" fill="#E2E2E2"/><rect width="26" height="10" x="103" y="46" fill="#E2E2E2"/><rect width="26" height="10" x="131" y="46" fill="#E2E2E2"/><rect width="26" height="10" x="159" y="46" fill="#E2E2E2"/></svg>